User Type,Username,Date,Text
,hapitots,2011-04-29T16:43Z,"Thanks man for the up. I've been looking for this sequel of 100 girls and hope this one is for real. I'll give my 2 cents once i've finished DL. c"",)"
,vivatpb5776,2011-12-11T14:33Z,"Since the previous poster did not provide any feedback, let me be the first to officially say, thank you. This was one of the hardest movies to find. The quality is DVDRip at best but it looked fine on my 47"" TV. For those that care, here are the tech specs:

General
Complete name                    : F:\QC\100 Women.avi
Format                           : AVI
Format/Info                      : Audio Video Interleave
File size                        : 949 MiB
Duration                         : 1h 34mn
Overall bit rate                 : 1 398 Kbps

Video
ID                               : 0
Format                           : AVC
Format/Info                      : Advanced Video Codec
Format profile                   : Main@L5.1
Format settings, CABAC           : Yes
Format settings, ReFrames        : 1 frame
Codec ID                         : H264
Duration                         : 1h 34mn
Bit rate                         : 1 194 Kbps
Width                            : 852 pixels
Height                           : 480 pixels
Display aspect ratio             : 16:9
Frame rate                       : 29.970 fps
Color space                      : YUV
Chroma subsampling               : 4:2:0
Bit depth                        : 8 bits
Scan type                        : Progressive
Bits/(Pixel*Frame)               : 0.097
Stream size                      : 811 MiB (85%)

Audio
ID                               : 1
Format                           : MPEG Audio
Format version                   : Version 1
Format profile                   : Layer 3
Codec ID                         : 55
Codec ID/Hint                    : MP3
Duration                         : 1h 34mn
Bit rate mode                    : Constant
Bit rate                         : 192 Kbps
Channel(s)                       : 2 channels
Sampling rate                    : 44.1 KHz
Compression mode                 : Lossy
Stream size                      : 130 MiB (14%)
Alignment                        : Split accross interleaves
Interleave, duration             : 34 ms (1.03 video frame)
Interleave, preload duration     : 24 ms

Again, thanks for the upload."
,ioannisarc,2012-04-22T21:13Z,Thank you very much.
